<!-- Generator: Adobe Illustrator 24.3.0, SVG Export Plug-In  -->
<svg version="1.1" xmlns="http://www.w3.org/2000/svg" xmlns:xlink="http://www.w3.org/1999/xlink" x="0px" y="0px" width="384px"
	 height="384px" viewBox="0 0 384 384" style="overflow:visible;enable-background:new 0 0 384 384;" xml:space="preserve">
<style type="text/css">
	.st0{fill:#777988;}
</style>
<defs>
</defs>
<path class="st0" d="M373.333,0c-2.176,0-4.396,1.369-9.176,3.207L256,44.802L128,0L7.469,40.531C3.197,41.604,0,45.864,0,51.197
	v322.136C0,379.729,4.271,384,10.666,384c1.828,0,6.505-2.33,9.087-3.319L128,339.197L256,384l120.531-40.531
	c4.271-1.073,7.469-5.334,7.469-10.667V10.666C384,4.271,379.729,0,373.333,0z M256,341.333l-128-44.802V42.666l128,44.803V341.333z
	"/>
</svg>
