<!-- Generator: Adobe Illustrator 24.3.0, SVG Export Plug-In  -->
<svg version="1.1" xmlns="http://www.w3.org/2000/svg" xmlns:xlink="http://www.w3.org/1999/xlink" x="0px" y="0px" width="416px"
	 height="416px" viewBox="0 0 416 416" style="overflow:visible;enable-background:new 0 0 416 416;" xml:space="preserve">
<style type="text/css">
	.st0{fill:#FFCD28;}
</style>
<defs>
</defs>
<path class="st0" d="M208,28c48.1,0,93.3,18.7,127.3,52.7S388,159.9,388,208s-18.7,93.3-52.7,127.3S256.1,388,208,388
	s-93.3-18.7-127.3-52.7S28,256.1,28,208s18.7-93.3,52.7-127.3S159.9,28,208,28 M208,0C93.1,0,0,93.1,0,208s93.1,208,208,208
	s208-93.1,208-208S322.9,0,208,0z"/>
<path class="st0" d="M315.5,100.5C286.8,71.8,248.6,56,208,56s-78.8,15.8-107.5,44.5S56,167.4,56,208s15.8,78.8,44.5,107.5
	S167.4,360,208,360s78.8-15.8,107.5-44.5S360,248.6,360,208S344.2,129.2,315.5,100.5z"/>
</svg>
