<svg xmlns="http://www.w3.org/2000/svg" xmlns:xlink="http://www.w3.org/1999/xlink" width="2081" height="1191" viewBox="0 0 2081 1191"><defs><linearGradient id="a" x1="0.037" y1="-0.345" x2="0.398" y2="1.389" gradientUnits="objectBoundingBox"><stop offset="0" stop-color="#33363b"/><stop offset="1" stop-color="#1d1f22"/></linearGradient><filter id="b" x="0" y="0" width="1350" height="1185.234" filterUnits="userSpaceOnUse"><feOffset dx="-2" dy="6" input="SourceAlpha"/><feGaussianBlur stdDeviation="10" result="c"/><feFlood flood-opacity="0.647"/><feComposite operator="in" in2="c"/><feComposite in="SourceGraphic"/></filter><linearGradient id="d" x1="-0.041" y1="-0.09" x2="0.993" y2="1" gradientUnits="objectBoundingBox"><stop offset="0" stop-color="#3d4148"/><stop offset="1" stop-color="#33363b"/></linearGradient><filter id="e" x="232" y="2" width="1110" height="1189" filterUnits="userSpaceOnUse"><feOffset dx="-10" dy="8" input="SourceAlpha"/><feGaussianBlur stdDeviation="10" result="f"/><feFlood flood-opacity="0.353"/><feComposite operator="in" in2="f"/><feComposite in="SourceGraphic"/></filter><filter id="h" x="718" y="2" width="1363" height="1189" filterUnits="userSpaceOnUse"><feOffset dx="-10" dy="8" input="SourceAlpha"/><feGaussianBlur stdDeviation="10" result="i"/><feFlood flood-opacity="0.353"/><feComposite operator="in" in2="i"/><feComposite in="SourceGraphic"/></filter><linearGradient id="j" x1="0.5" x2="0.5" y2="1" gradientUnits="objectBoundingBox"><stop offset="0" stop-color="#00a3bf"/><stop offset="1" stop-color="#1895aa"/></linearGradient><filter id="k" x="512.258" y="273" width="33" height="33" filterUnits="userSpaceOnUse"><feOffset dy="3" input="SourceAlpha"/><feGaussianBlur stdDeviation="3" result="l"/><feFlood flood-opacity="0.341"/><feComposite operator="in" in2="l"/><feComposite in="SourceGraphic"/></filter><linearGradient id="m" x1="0.5" x2="0.5" y2="1" gradientUnits="objectBoundingBox"><stop offset="0" stop-color="#3d4148"/><stop offset="1" stop-color="#2e3138"/></linearGradient><filter id="n" x="496.258" y="273" width="33" height="33" filterUnits="userSpaceOnUse"><feOffset dx="4" dy="3" input="SourceAlpha"/><feGaussianBlur stdDeviation="3" result="o"/><feFlood flood-opacity="0.255"/><feComposite operator="in" in2="o"/><feComposite in="SourceGraphic"/></filter><linearGradient id="p" x1="0.5" x2="0.5" y2="1" gradientUnits="objectBoundingBox"><stop offset="0" stop-color="#ced2d6"/><stop offset="1" stop-color="#a5a7a8"/></linearGradient><filter id="s" x="567.258" y="452" width="33" height="33" filterUnits="userSpaceOnUse"><feOffset dx="4" dy="3" input="SourceAlpha"/><feGaussianBlur stdDeviation="3" result="t"/><feFlood flood-opacity="0.255"/><feComposite operator="in" in2="t"/><feComposite in="SourceGraphic"/></filter></defs><g transform="translate(-28 -36)"><g transform="matrix(1, 0, 0, 1, 28, 36)" filter="url(#b)"><path d="M8,0H1282c4.418,0,8,4.334,8,9.679V1115.555c0,5.346-3.582,9.679-8,9.679H8c-4.418,0-8-4.334-8-9.679V9.679C0,4.334,3.582,0,8,0Z" transform="translate(32 24)" fill="url(#a)"/></g><g transform="translate(81.187 99)"><path d="M96.56,20.8V19.542a1.015,1.015,0,0,0,.027-.177c.056-3.358.123-6.715.158-10.075.027-2.523.015-5.045.013-7.568a.611.611,0,0,1,.22-.518,2,2,0,0,1,.507-.319A10.524,10.524,0,0,1,98.546.56a16.124,16.124,0,0,1,8.69.11,18.608,18.608,0,0,1,6.787,3.61,21.5,21.5,0,0,1,2.626,2.577A9.875,9.875,0,0,0,118.9,8.784a3.238,3.238,0,0,1,1.15,1.117,1.529,1.529,0,0,1,.187,1.259c-.36-.106-.438-.191-.862-.923-.045.1-.1.169-.106.242a1.158,1.158,0,0,0,.052.376,4.85,4.85,0,0,0,1.43,2.077A6.669,6.669,0,0,0,123.7,14.4c.3.069.6.113.905.169a7.117,7.117,0,0,1-6.081-1.336,1.314,1.314,0,0,0,.15.469,6.155,6.155,0,0,0,.41.526c.381.479.374.8-.094,1.179-.5.4-1.03.759-1.543,1.142-.388.292-.786.574-1.144.9a3.007,3.007,0,0,0-.976,1.641.773.773,0,0,1-.435.528,1.2,1.2,0,0,1-1.2-.05,4.723,4.723,0,0,1-1.34-1.1,1.185,1.185,0,0,1-.288-.917,2.11,2.11,0,0,0-2.511-2.334,2,2,0,0,0-1.138.619,1.1,1.1,0,0,1,.644.83,1.938,1.938,0,0,1-.181,1.394c-.22.4-.5.766-.742,1.154a4.974,4.974,0,0,0-.558,1,1.492,1.492,0,0,1-1.063,1.041c-.785.214-1.58.393-2.379.55a10.779,10.779,0,0,1-1.21.1c.023-.121.031-.194.049-.263q.307-1.089.617-2.177a1.094,1.094,0,0,1,.088-.224c.142-.25.242-.275.507-.174a1.384,1.384,0,0,0,1.487-.163.939.939,0,0,0,.295-1.029.748.748,0,0,0-.75-.568c-.443-.023-.891-.024-1.334-.023-.641,0-1.281.012-1.921.029a.608.608,0,0,0-.555.37c-.364.713-.751,1.417-1.115,2.131a6.932,6.932,0,0,0-.388.929,1.181,1.181,0,0,0,.074.98,11.037,11.037,0,0,1,.892,2.164c.106.36.193.724.289,1.093a.9.9,0,0,1-.117.023c-1.018.005-2.037.013-3.056.011a1.063,1.063,0,0,1-.429-.1.427.427,0,0,1-.2-.612,1.611,1.611,0,0,0,.123-.341,2.04,2.04,0,0,0-.2-1.275A7.312,7.312,0,0,1,96.56,20.8Z" transform="translate(-83.74 -0.017)" fill="#ffab00"/><rect width="2.9" height="19.371" transform="translate(8.352 5.626)" fill="#ffab00"/><rect width="2.9" height="13.73" transform="translate(4.176 11.266)" fill="#ffab00"/><rect width="2.9" height="8.03" transform="translate(0 16.966)" fill="#ffab00"/><text transform="translate(49.813 21)" fill="#ced2d6" font-size="18" font-family="Lato-Regular, Lato"><tspan x="0" y="0">Steer</tspan></text><path d="M6,0H219V36H6a6,6,0,0,1-6-6V6A6,6,0,0,1,6,0Z" transform="translate(20.813 196)" fill="#00a3bf"/><g transform="translate(34.813 179)"><text transform="translate(25 133)" fill="#777988" font-size="13" font-family="Lato-Light, Lato" font-weight="300" letter-spacing="0.025em" opacity="0.422"><tspan x="0" y="0">Add a priority</tspan></text><text transform="translate(25 102)" fill="#9ea5ad" font-size="13" font-family="Lato-Light, Lato" font-weight="300" letter-spacing="0.025em"><tspan x="0" y="0">Campaigns</tspan></text><text transform="translate(25 72)" fill="#9ea5ad" font-size="13" font-family="Lato-Light, Lato" font-weight="300" letter-spacing="0.025em"><tspan x="0" y="0">Product Roster</tspan></text><text transform="translate(25 41)" fill="#fff" font-size="13" font-family="Lato-Light, Lato" font-weight="300" letter-spacing="0.025em"><tspan x="0" y="0">Conference Goes Virtual</tspan></text><text transform="translate(0 10)" fill="#777988" font-size="10" font-family="Lato-Regular, Lato" letter-spacing="0.1em"><tspan x="0" y="0">PRIORITY CARDS</tspan></text><g transform="translate(0 28.5)"><path d="M55.5,48A7.5,7.5,0,1,0,63,55.5,7.509,7.509,0,0,0,55.5,48Zm2.885,8.077H56.077v2.308a.577.577,0,1,1-1.154,0V56.077H52.615a.577.577,0,1,1,0-1.154h2.308V52.615a.577.577,0,1,1,1.154,0v2.308h2.308a.577.577,0,1,1,0,1.154Z" transform="translate(-48 44.5)" fill="#777988" opacity="0.42"/><path d="M182.029,232.65l-1.7-1.7a.073.073,0,0,0-.111.014l-1.715,3.412a.071.071,0,0,0,.1.1l3.412-1.715A.073.073,0,0,0,182.029,232.65Z" transform="translate(-173.73 -224.252)" fill="#fff"/><path d="M55.5,48A7.5,7.5,0,1,0,63,55.5,7.5,7.5,0,0,0,55.5,48Zm1.464,8.989-5.755,2.9a.074.074,0,0,1-.1-.1l2.906-5.755a.084.084,0,0,1,.025-.025l5.751-2.9a.074.074,0,0,1,.1.1l-2.906,5.755a.048.048,0,0,1-.022.025Z" transform="translate(-48 -48)" fill="#fff"/><g transform="translate(0 31)"><path d="M182.029,232.65l-1.7-1.7a.073.073,0,0,0-.111.014l-1.715,3.412a.071.071,0,0,0,.1.1l3.412-1.715A.073.073,0,0,0,182.029,232.65Z" transform="translate(-173.73 -224.252)" fill="#777988"/><path d="M55.5,48A7.5,7.5,0,1,0,63,55.5,7.5,7.5,0,0,0,55.5,48Zm1.464,8.989-5.755,2.9a.074.074,0,0,1-.1-.1l2.906-5.755a.084.084,0,0,1,.025-.025l5.751-2.9a.074.074,0,0,1,.1.1l-2.906,5.755a.048.048,0,0,1-.022.025Z" transform="translate(-48 -48)" fill="#777988"/></g><g transform="translate(0 61)"><path d="M182.029,232.65l-1.7-1.7a.073.073,0,0,0-.111.014l-1.715,3.412a.071.071,0,0,0,.1.1l3.412-1.715A.073.073,0,0,0,182.029,232.65Z" transform="translate(-173.73 -224.252)" fill="#777988"/><path d="M55.5,48A7.5,7.5,0,1,0,63,55.5,7.5,7.5,0,0,0,55.5,48Zm1.464,8.989-5.755,2.9a.074.074,0,0,1-.1-.1l2.906-5.755a.084.084,0,0,1,.025-.025l5.751-2.9a.074.074,0,0,1,.1.1l-2.906,5.755a.048.048,0,0,1-.022.025Z" transform="translate(-48 -48)" fill="#777988"/></g></g></g><g transform="translate(34.813 65)"><text transform="translate(27 69)" fill="#9ea5ad" font-size="13" font-family="Lato-Light, Lato" font-weight="300" letter-spacing="0.025em"><tspan x="0" y="0">Roadmap</tspan></text><text transform="translate(27 38)" fill="#9ea5ad" font-size="13" font-family="Lato-Light, Lato" font-weight="300" letter-spacing="0.025em"><tspan x="0" y="0">All priority cards</tspan></text><text transform="translate(0 10)" fill="#777988" font-size="10" font-family="Lato-Regular, Lato" letter-spacing="0.1em"><tspan x="0" y="0">VIEWS</tspan></text><g transform="translate(0 25.664)"><path d="M78.583,64a1.333,1.333,0,0,0-.358.125L74,65.75,69,64l-4.708,1.583A.414.414,0,0,0,64,66V78.583a.394.394,0,0,0,.417.417,1.811,1.811,0,0,0,.355-.13L69,77.25,74,79l4.708-1.583A.414.414,0,0,0,79,77V64.417A.394.394,0,0,0,78.583,64ZM74,77.333l-5-1.75V65.667l5,1.75Z" transform="translate(-64 -32.664)" fill="#777988"/><path d="M77.437,64H65.563A1.562,1.562,0,0,0,64,65.563V77.437A1.562,1.562,0,0,0,65.563,79H77.437A1.562,1.562,0,0,0,79,77.437V65.563A1.562,1.562,0,0,0,77.437,64ZM73.375,75.875h-6.25V74h6.25Zm2.5-3.437h-8.75V70.563h8.75Zm0-3.438h-8.75V67.125h8.75Z" transform="translate(-64 -64)" fill="#777988"/></g></g></g><g transform="matrix(1, 0, 0, 1, 28, 36)" filter="url(#e)"><rect width="1050" height="1129" rx="7" transform="translate(272 24)" fill="url(#d)"/></g><g transform="matrix(1, 0, 0, 1, 28, 36)" filter="url(#h)"><rect width="1303" height="1129" rx="7" transform="translate(758 24)" fill="url(#d)"/></g><g transform="translate(0 55)"><g transform="translate(340.5 182)"><text transform="translate(29.5 22)" fill="#ced2d6" font-size="22" font-family="Lato-Light, Lato" font-weight="300"><tspan x="0" y="0">Project Cards</tspan></text><line x2="405.5" transform="translate(0 35.5)" fill="none" stroke="#484a55" stroke-width="2"/><path d="M52.42,98.418H43.285L41.136,96H34.149A2.156,2.156,0,0,0,32,98.15v11.822a2.156,2.156,0,0,0,2.149,2.149H52.42a2.156,2.156,0,0,0,2.149-2.149v-9.4A2.156,2.156,0,0,0,52.42,98.418Zm.537,11.553a.545.545,0,0,1-.537.537H34.149a.545.545,0,0,1-.537-.537V100.03H52.42a.545.545,0,0,1,.537.537Z" transform="translate(-31.5 -90.223)" fill="#5b5d6a"/></g><g transform="translate(340 242)"><g fill="none" stroke="#484a55" stroke-width="2"><rect width="406" height="50" rx="5" stroke="none"/><rect x="1" y="1" width="404" height="48" rx="4" fill="none"/></g><path d="M6,0H8A0,0,0,0,1,8,0V50a0,0,0,0,1,0,0H6a6,6,0,0,1-6-6V6A6,6,0,0,1,6,0Z" fill="#2ecc71"/><g transform="translate(28 15)"><text transform="translate(0 17)" fill="#ced2d6" font-size="17" font-family="Lato-Regular, Lato" letter-spacing="0.03em"><tspan x="0" y="0">Keynote Speakers</tspan></text><g transform="translate(161.258 3)"><g transform="matrix(1, 0, 0, 1, -501.26, -279)" filter="url(#k)"><path d="M3,0h9a3,3,0,0,1,3,3v9a3,3,0,0,1-3,3H3a3,3,0,0,1-3-3V3A3,3,0,0,1,3,0Z" transform="translate(521.26 279)" fill="url(#j)"/></g><g transform="matrix(1, 0, 0, 1, -501.26, -279)" filter="url(#n)"><path d="M3,0h9a3,3,0,0,1,3,3v9a3,3,0,0,1-3,3H3a3,3,0,0,1-3-3V3A3,3,0,0,1,3,0Z" transform="translate(501.26 279)" fill="url(#m)"/></g><text transform="translate(4.742 11)" fill="#fff" font-size="9" font-family="Lato-Black, Lato" font-weight="800"><tspan x="0" y="0">1</tspan></text><text transform="translate(24.742 11)" fill="#fff" font-size="9" font-family="Lato-Black, Lato" font-weight="800"><tspan x="0" y="0">5</tspan></text><path d="M3,0h9a3,3,0,0,1,3,3v9a3,3,0,0,1-3,3H3a3,3,0,0,1-3-3V3A3,3,0,0,1,3,0Z" transform="translate(40)" fill="url(#p)"/><text transform="translate(44.742 11)" fill="#25272d" font-size="9" font-family="Lato-Black, Lato" font-weight="800"><tspan x="0" y="0">2</tspan></text></g></g></g><g transform="translate(340 302)"><g fill="none" stroke="#484a55" stroke-width="2"><rect width="406" height="50" rx="5" stroke="none"/><rect x="1" y="1" width="404" height="48" rx="4" fill="none"/></g><path d="M6,0H8A0,0,0,0,1,8,0V50a0,0,0,0,1,0,0H6a6,6,0,0,1-6-6V6A6,6,0,0,1,6,0Z" fill="#ffcd28"/><g transform="translate(28 15)"><text transform="translate(0 17)" fill="#ced2d6" font-size="17" font-family="Lato-Regular, Lato" letter-spacing="0.03em"><tspan x="0" y="0">Marketing and Promotions</tspan></text><g transform="translate(230.258 3)"><path d="M3,0h9a3,3,0,0,1,3,3v9a3,3,0,0,1-3,3H3a3,3,0,0,1-3-3V3A3,3,0,0,1,3,0Z" fill="url(#p)"/><text transform="translate(4.742 11)" fill="#25272d" font-size="9" font-family="Lato-Black, Lato" font-weight="800"><tspan x="0" y="0">2</tspan></text></g></g></g><g transform="translate(340 362)"><g fill="none" stroke="#484a55" stroke-width="2"><rect width="406" height="50" rx="5" stroke="none"/><rect x="1" y="1" width="404" height="48" rx="4" fill="none"/></g><text transform="translate(28 32)" fill="#ced2d6" font-size="17" font-family="Lato-Regular, Lato" letter-spacing="0.03em"><tspan x="0" y="0">Event and Agenda Structure</tspan></text></g><g transform="translate(340 422)"><g fill="none" stroke="#484a55" stroke-width="2"><rect width="406" height="50" rx="5" stroke="none"/><rect x="1" y="1" width="404" height="48" rx="4" fill="none"/></g><path d="M6,0H8A0,0,0,0,1,8,0V50a0,0,0,0,1,0,0H6a6,6,0,0,1-6-6V6A6,6,0,0,1,6,0Z" fill="#ff554c"/><g transform="translate(28 15)"><text transform="translate(0 17)" fill="#ced2d6" font-size="17" font-family="Lato-Regular, Lato" letter-spacing="0.03em"><tspan x="0" y="0">Attendee Attention Tactics</tspan></text><g transform="translate(232.258 2)"><g transform="matrix(1, 0, 0, 1, -572.26, -458)" filter="url(#s)"><path d="M3,0h9a3,3,0,0,1,3,3v9a3,3,0,0,1-3,3H3a3,3,0,0,1-3-3V3A3,3,0,0,1,3,0Z" transform="translate(572.26 458)" fill="url(#m)"/></g><text transform="translate(4.742 11)" fill="#fff" font-size="9" font-family="Lato-Black, Lato" font-weight="800"><tspan x="0" y="0">1</tspan></text><path d="M3,0h9a3,3,0,0,1,3,3v9a3,3,0,0,1-3,3H3a3,3,0,0,1-3-3V3A3,3,0,0,1,3,0Z" transform="translate(21)" fill="url(#p)"/><text transform="translate(25.742 11)" fill="#25272d" font-size="9" font-family="Lato-Black, Lato" font-weight="800"><tspan x="0" y="0">4</tspan></text></g></g></g><g transform="translate(340 482)"><g fill="none" stroke="#484a55" stroke-width="2"><rect width="406" height="50" rx="5" stroke="none"/><rect x="1" y="1" width="404" height="48" rx="4" fill="none"/></g><g transform="translate(28 15)"><text transform="translate(0 17)" fill="#ced2d6" font-size="17" font-family="Lato-Regular, Lato" letter-spacing="0.03em"><tspan x="0" y="0">Video and Audio Technology</tspan></text><path d="M76.914,56.131a2.354,2.354,0,0,0-1.685.645l-6.176-3.57a2.141,2.141,0,0,0,0-1.2l6.09-3.527a2.585,2.585,0,1,0-.821-1.893,2.876,2.876,0,0,0,.086.6l-6.09,3.527a2.6,2.6,0,0,0-1.771-.688A2.557,2.557,0,0,0,64,52.6,2.6,2.6,0,0,0,68.362,54.5l6.133,3.57a2.158,2.158,0,0,0-.086.559,2.505,2.505,0,1,0,2.505-2.495Z" transform="translate(175.501 -42.615)" fill="#ff7452"/></g></g></g></g></svg>