<!-- Generator: Adobe Illustrator 24.3.0, SVG Export Plug-In  -->
<svg version="1.1" xmlns="http://www.w3.org/2000/svg" xmlns:xlink="http://www.w3.org/1999/xlink" x="0px" y="0px" width="384px"
	 height="448px" viewBox="0 0 384 448" style="overflow:visible;enable-background:new 0 0 384 448;" xml:space="preserve">
<style type="text/css">
	.st0{fill:#3D4148;}
</style>
<defs>
</defs>
<path class="st0" d="M192,0C121.3,0,64,57.3,64,128s57.3,128,128,128s128-57.3,128-128S262.7,0,192,0z M192,208
	c-44.2,0-80-35.8-80-80s35.8-80,80-80s80,35.8,80,80S236.2,208,192,208z M129.7,275.4c-19.1-8.1-36.2-19.6-50.8-34.3
	c-1.4-1.4-2.8-2.8-4.1-4.3L0,368h96l48,80l48-105.8l25.5-56.2c-8.4,1.3-16.9,2-25.5,2C170.4,288,149.5,283.8,129.7,275.4z
	 M309.3,236.9c-1.3,1.4-2.7,2.9-4.1,4.3c-14.6,14.6-31.7,26.2-50.7,34.2L230,329.2l-21.9,48.4L240,448l48-80h96L309.3,236.9z"/>
</svg>
