<svg xmlns="http://www.w3.org/2000/svg" width="969.182" height="29.5" viewBox="0 0 969.182 29.5"><g transform="translate(4.5)"><path d="M72.1,32a5.4,5.4,0,1,0,5.4,5.4A5.4,5.4,0,0,0,72.1,32Zm0,8.779A3.377,3.377,0,1,1,75.481,37.4,3.376,3.376,0,0,1,72.1,40.779Zm-2.63,2.845a6.681,6.681,0,0,1-2.144-1.448c-.059-.059-.118-.118-.173-.181L64,47.533h4.052l2.026,3.377L72.1,46.444l1.076-2.372a7.028,7.028,0,0,1-1.076.084A6.685,6.685,0,0,1,69.474,43.624ZM77.055,42c-.055.059-.114.122-.173.181a6.7,6.7,0,0,1-2.14,1.444L73.708,45.9l-.924,2.043L74.13,50.91l2.026-3.377h4.052Z" transform="translate(-64 -29.41)" fill="#5b5d6a"/><text transform="translate(25 20)" fill="#ced2d6" font-size="20" font-family="Lato-Light, Lato" font-weight="300" letter-spacing="0.02em"><tspan x="0" y="0">Milestones</tspan></text></g><g transform="translate(0 28.5)"><line x2="969.182" fill="none" stroke="#484a55" stroke-width="2"/></g></svg>