<svg xmlns="http://www.w3.org/2000/svg" xmlns:xlink="http://www.w3.org/1999/xlink" width="970" height="350" viewBox="0 0 970 350"><defs><linearGradient id="a" x1="0.5" x2="0.5" y2="1" gradientUnits="objectBoundingBox"><stop offset="0" stop-color="#00a3bf"/><stop offset="1" stop-color="#1895aa"/></linearGradient><filter id="b" x="200.258" y="72" width="33" height="33" filterUnits="userSpaceOnUse"><feOffset dy="3" input="SourceAlpha"/><feGaussianBlur stdDeviation="3" result="c"/><feFlood flood-opacity="0.341"/><feComposite operator="in" in2="c"/><feComposite in="SourceGraphic"/></filter><linearGradient id="d" x1="0.5" x2="0.5" y2="1" gradientUnits="objectBoundingBox"><stop offset="0" stop-color="#3d4148"/><stop offset="1" stop-color="#2e3138"/></linearGradient><filter id="e" x="184.258" y="72" width="33" height="33" filterUnits="userSpaceOnUse"><feOffset dx="4" dy="3" input="SourceAlpha"/><feGaussianBlur stdDeviation="3" result="f"/><feFlood flood-opacity="0.255"/><feComposite operator="in" in2="f"/><feComposite in="SourceGraphic"/></filter><linearGradient id="g" x1="0.5" x2="0.5" y2="1" gradientUnits="objectBoundingBox"><stop offset="0" stop-color="#ced2d6"/><stop offset="1" stop-color="#a5a7a8"/></linearGradient><filter id="j" x="255.258" y="251" width="33" height="33" filterUnits="userSpaceOnUse"><feOffset dx="4" dy="3" input="SourceAlpha"/><feGaussianBlur stdDeviation="3" result="k"/><feFlood flood-opacity="0.255"/><feComposite operator="in" in2="k"/><feComposite in="SourceGraphic"/></filter></defs><g transform="translate(-340 -182)"><g transform="translate(340.5 183)"><text transform="translate(29.5 21)" fill="#ced2d6" font-size="22" font-family="Lato-Light, Lato" font-weight="300"><tspan x="0" y="0">Project Cards</tspan></text><line x2="969.5" transform="translate(0 34.5)" fill="none" stroke="#484a55" stroke-width="2"/><path d="M52.42,98.418H43.285L41.136,96H34.149A2.156,2.156,0,0,0,32,98.15v11.822a2.156,2.156,0,0,0,2.149,2.149H52.42a2.156,2.156,0,0,0,2.149-2.149v-9.4A2.156,2.156,0,0,0,52.42,98.418Zm.537,11.553a.545.545,0,0,1-.537.537H34.149a.545.545,0,0,1-.537-.537V100.03H52.42a.545.545,0,0,1,.537.537Z" transform="translate(-31.5 -91.223)" fill="#5b5d6a"/></g><g transform="translate(340 242)" fill="none" stroke="#484a55" stroke-width="2"><rect width="970" height="50" rx="5" stroke="none"/><rect x="1" y="1" width="968" height="48" rx="4" fill="none"/></g><text transform="translate(368 274)" fill="#ced2d6" font-size="17" font-family="Lato-Regular, Lato" letter-spacing="0.03em"><tspan x="0" y="0">Keynote Speakers</tspan></text><path d="M6,0H8A0,0,0,0,1,8,0V50a0,0,0,0,1,0,0H6a6,6,0,0,1-6-6V6A6,6,0,0,1,6,0Z" transform="translate(340 242)" fill="#2ecc71"/><g transform="translate(529.258 260)"><g transform="matrix(1, 0, 0, 1, -189.26, -78)" filter="url(#b)"><path d="M3,0h9a3,3,0,0,1,3,3v9a3,3,0,0,1-3,3H3a3,3,0,0,1-3-3V3A3,3,0,0,1,3,0Z" transform="translate(209.26 78)" fill="url(#a)"/></g><g transform="matrix(1, 0, 0, 1, -189.26, -78)" filter="url(#e)"><path d="M3,0h9a3,3,0,0,1,3,3v9a3,3,0,0,1-3,3H3a3,3,0,0,1-3-3V3A3,3,0,0,1,3,0Z" transform="translate(189.26 78)" fill="url(#d)"/></g><text transform="translate(4.742 11)" fill="#fff" font-size="9" font-family="Lato-Black, Lato" font-weight="800"><tspan x="0" y="0">1</tspan></text><text transform="translate(24.742 11)" fill="#fff" font-size="9" font-family="Lato-Black, Lato" font-weight="800"><tspan x="0" y="0">5</tspan></text><path d="M3,0h9a3,3,0,0,1,3,3v9a3,3,0,0,1-3,3H3a3,3,0,0,1-3-3V3A3,3,0,0,1,3,0Z" transform="translate(40)" fill="url(#g)"/><text transform="translate(44.742 11)" fill="#25272d" font-size="9" font-family="Lato-Black, Lato" font-weight="800"><tspan x="0" y="0">2</tspan></text></g><g transform="translate(0 60)"><g transform="translate(340 242)" fill="none" stroke="#484a55" stroke-width="2"><rect width="970" height="50" rx="5" stroke="none"/><rect x="1" y="1" width="968" height="48" rx="4" fill="none"/></g><text transform="translate(368 274)" fill="#ced2d6" font-size="17" font-family="Lato-Regular, Lato" letter-spacing="0.03em"><tspan x="0" y="0">Marketing and Promotions</tspan></text><path d="M6,0H8A0,0,0,0,1,8,0V50a0,0,0,0,1,0,0H6a6,6,0,0,1-6-6V6A6,6,0,0,1,6,0Z" transform="translate(340 242)" fill="#ffcd28"/><g transform="translate(558.258 260)"><path d="M3,0h9a3,3,0,0,1,3,3v9a3,3,0,0,1-3,3H3a3,3,0,0,1-3-3V3A3,3,0,0,1,3,0Z" transform="translate(40)" fill="url(#g)"/><text transform="translate(44.742 11)" fill="#25272d" font-size="9" font-family="Lato-Black, Lato" font-weight="800"><tspan x="0" y="0">2</tspan></text></g></g><g transform="translate(0 120)"><g transform="translate(340 242)" fill="none" stroke="#484a55" stroke-width="2"><rect width="970" height="50" rx="5" stroke="none"/><rect x="1" y="1" width="968" height="48" rx="4" fill="none"/></g><text transform="translate(368 274)" fill="#ced2d6" font-size="17" font-family="Lato-Regular, Lato" letter-spacing="0.03em"><tspan x="0" y="0">Event and Agenda Structure</tspan></text></g><g transform="translate(0 180)"><g transform="translate(340 242)" fill="none" stroke="#484a55" stroke-width="2"><rect width="970" height="50" rx="5" stroke="none"/><rect x="1" y="1" width="968" height="48" rx="4" fill="none"/></g><text transform="translate(368 274)" fill="#ced2d6" font-size="17" font-family="Lato-Regular, Lato" letter-spacing="0.03em"><tspan x="0" y="0">Attendee Attention Tactics</tspan></text><path d="M6,0H8A0,0,0,0,1,8,0V50a0,0,0,0,1,0,0H6a6,6,0,0,1-6-6V6A6,6,0,0,1,6,0Z" transform="translate(340 242)" fill="#ff554c"/><g transform="translate(600.258 259)"><g transform="matrix(1, 0, 0, 1, -260.26, -257)" filter="url(#j)"><path d="M3,0h9a3,3,0,0,1,3,3v9a3,3,0,0,1-3,3H3a3,3,0,0,1-3-3V3A3,3,0,0,1,3,0Z" transform="translate(260.26 257)" fill="url(#d)"/></g><text transform="translate(4.742 11)" fill="#fff" font-size="9" font-family="Lato-Black, Lato" font-weight="800"><tspan x="0" y="0">1</tspan></text><path d="M3,0h9a3,3,0,0,1,3,3v9a3,3,0,0,1-3,3H3a3,3,0,0,1-3-3V3A3,3,0,0,1,3,0Z" transform="translate(21)" fill="url(#g)"/><text transform="translate(25.742 11)" fill="#25272d" font-size="9" font-family="Lato-Black, Lato" font-weight="800"><tspan x="0" y="0">4</tspan></text></g></g><g transform="translate(0 240)"><g transform="translate(340 242)" fill="none" stroke="#484a55" stroke-width="2"><rect width="970" height="50" rx="5" stroke="none"/><rect x="1" y="1" width="968" height="48" rx="4" fill="none"/></g><text transform="translate(368 274)" fill="#ced2d6" font-size="17" font-family="Lato-Regular, Lato" letter-spacing="0.03em"><tspan x="0" y="0">Video and Audio Technology</tspan></text><path d="M76.914,56.131a2.354,2.354,0,0,0-1.685.645l-6.176-3.57a2.141,2.141,0,0,0,0-1.2l6.09-3.527a2.585,2.585,0,1,0-.821-1.893,2.876,2.876,0,0,0,.086.6l-6.09,3.527a2.6,2.6,0,0,0-1.771-.688A2.557,2.557,0,0,0,64,52.6,2.6,2.6,0,0,0,68.362,54.5l6.133,3.57a2.158,2.158,0,0,0-.086.559,2.505,2.505,0,1,0,2.505-2.495Z" transform="translate(1196.501 214.385)" fill="#ff7452"/></g></g></svg>