<!-- Generator: Adobe Illustrator 24.3.0, SVG Export Plug-In  -->
<svg version="1.1" xmlns="http://www.w3.org/2000/svg" xmlns:xlink="http://www.w3.org/1999/xlink" x="0px" y="0px" width="447.9px"
	 height="416px" viewBox="0 0 447.9 416" style="overflow:visible;enable-background:new 0 0 447.9 416;" xml:space="preserve">
<style type="text/css">
	.st0{fill:#3D4148;}
</style>
<defs>
</defs>
<path class="st0" d="M396,221c-21.5,0-40.6,13.1-48.4,33h-41.2L275,173.3c-2.7-8.2-10.3-13.7-19-13.7h-0.4
	c-8.8,0.2-16.4,6-18.8,14.5l-33.6,135.4L147.7,17.7C146,7.6,137.6,0,128,0c-9.5,0-16.9,6.2-19.4,16.2L58.3,254H0v40h74
	c9.2,0,17.2-6.2,19.4-15.2l30.7-160.6l54.1,282.1c1.5,8.8,8.9,15.1,18.6,15.7h1.2c9.3,0,16.9-5.3,19.2-13.5l40.2-162.9l15.5,40.7
	c2.7,8.2,10.3,13.7,19,13.7h56.4c8.3,19,27.1,31,47.6,31c13.9,0,26.9-5.6,36.8-15.8c9.8-10.1,15.2-23.3,15.2-37.2
	C448,243.4,425.2,221,396,221L396,221z"/>
</svg>
