<!-- Generator: Adobe Illustrator 24.3.0, SVG Export Plug-In  -->
<svg version="1.1" xmlns="http://www.w3.org/2000/svg" xmlns:xlink="http://www.w3.org/1999/xlink" x="0px" y="0px" width="416px"
	 height="416.1px" viewBox="0 0 416 416.1" style="overflow:visible;enable-background:new 0 0 416 416.1;" xml:space="preserve">
<style type="text/css">
	.st0{fill:#3D4148;}
</style>
<defs>
</defs>
<path class="st0" d="M352,373.3V106.7c0-23.5-19.2-42.7-42.7-42.7H42.7C19.2,64,0,83.2,0,106.7v266.7c0,23.5,19.2,42.7,42.7,42.7
	h266.7C332.8,416,352,396.8,352,373.3L352,373.3z M109.3,256l45.3,64l66.7-96l88,128H42.7L109.3,256L109.3,256z"/>
<path class="st0" d="M373.3,0H106.7C83.2,0,64,19.2,64,42.7V48h261.3c23.5,0,42.7,19.2,42.7,42.7V352h5.3
	c23.5,0,42.7-19.2,42.7-42.7V42.7C416,19.2,396.8,0,373.3,0z"/>
</svg>
