<svg xmlns="http://www.w3.org/2000/svg" xmlns:xlink="http://www.w3.org/1999/xlink" width="1245" height="765" viewBox="0 0 1245 765"><defs><linearGradient id="a" x1="0.415" y1="-0.386" x2="0.489" y2="1.127" gradientUnits="objectBoundingBox"><stop offset="0" stop-color="#33363b"/><stop offset="1" stop-color="#26282c"/></linearGradient><filter id="b" x="0" y="0" width="1245" height="765" filterUnits="userSpaceOnUse"><feOffset dx="6" dy="5" input="SourceAlpha"/><feGaussianBlur stdDeviation="7.5" result="c"/><feFlood flood-opacity="0.608"/><feComposite operator="in" in2="c"/><feComposite in="SourceGraphic"/></filter></defs><g transform="translate(16.5 17.5)"><g transform="matrix(1, 0, 0, 1, -16.5, -17.5)" filter="url(#b)"><rect width="1200" height="720" rx="8" transform="translate(16.5 17.5)" fill="url(#a)"/></g><g transform="translate(-1 -15)"><g transform="translate(-3 27)"><path d="M96.56,20.8V19.542a1.015,1.015,0,0,0,.027-.177c.056-3.358.123-6.715.158-10.075.027-2.523.015-5.045.013-7.568a.611.611,0,0,1,.22-.518,2,2,0,0,1,.507-.319A10.524,10.524,0,0,1,98.546.56a16.124,16.124,0,0,1,8.69.11,18.608,18.608,0,0,1,6.787,3.61,21.5,21.5,0,0,1,2.626,2.577A9.875,9.875,0,0,0,118.9,8.784a3.238,3.238,0,0,1,1.15,1.117,1.529,1.529,0,0,1,.187,1.259c-.36-.106-.438-.191-.862-.923-.045.1-.1.169-.106.242a1.158,1.158,0,0,0,.052.376,4.85,4.85,0,0,0,1.43,2.077A6.669,6.669,0,0,0,123.7,14.4c.3.069.6.113.905.169a7.117,7.117,0,0,1-6.081-1.336,1.314,1.314,0,0,0,.15.469,6.155,6.155,0,0,0,.41.526c.381.479.374.8-.094,1.179-.5.4-1.03.759-1.543,1.142-.388.292-.786.574-1.144.9a3.007,3.007,0,0,0-.976,1.641.773.773,0,0,1-.435.528,1.2,1.2,0,0,1-1.2-.05,4.723,4.723,0,0,1-1.34-1.1,1.185,1.185,0,0,1-.288-.917,2.11,2.11,0,0,0-2.511-2.334,2,2,0,0,0-1.138.619,1.1,1.1,0,0,1,.644.83,1.938,1.938,0,0,1-.181,1.394c-.22.4-.5.766-.742,1.154a4.974,4.974,0,0,0-.558,1,1.492,1.492,0,0,1-1.063,1.041c-.785.214-1.58.393-2.379.55a10.779,10.779,0,0,1-1.21.1c.023-.121.031-.194.049-.263q.307-1.089.617-2.177a1.094,1.094,0,0,1,.088-.224c.142-.25.242-.275.507-.174a1.384,1.384,0,0,0,1.487-.163.939.939,0,0,0,.295-1.029.748.748,0,0,0-.75-.568c-.443-.023-.891-.024-1.334-.023-.641,0-1.281.012-1.921.029a.608.608,0,0,0-.555.37c-.364.713-.751,1.417-1.115,2.131a6.932,6.932,0,0,0-.388.929,1.181,1.181,0,0,0,.074.98,11.037,11.037,0,0,1,.892,2.164c.106.36.193.724.289,1.093a.9.9,0,0,1-.117.023c-1.018.005-2.037.013-3.056.011a1.063,1.063,0,0,1-.429-.1.427.427,0,0,1-.2-.612,1.611,1.611,0,0,0,.123-.341,2.04,2.04,0,0,0-.2-1.275A7.312,7.312,0,0,1,96.56,20.8Z" transform="translate(-63.553 24.983)" fill="#ffab00"/><rect width="2.9" height="19.371" transform="translate(28.54 30.626)" fill="#ffab00"/><rect width="2.9" height="13.73" transform="translate(24.363 36.266)" fill="#ffab00"/><rect width="2.9" height="8.03" transform="translate(20.187 41.966)" fill="#ffab00"/></g><text transform="translate(67 73)" fill="#ced2d6" font-size="18" font-family="Lato-Regular, Lato"><tspan x="0" y="0">Steer</tspan></text><path d="M6,0H219V36H6a6,6,0,0,1-6-6V6A6,6,0,0,1,6,0Z" transform="translate(38 248)" fill="#00a3bf"/></g><g transform="translate(-1 -15)"><text transform="translate(77 364)" fill="#777988" font-size="13" font-family="Lato-Light, Lato" font-weight="300" letter-spacing="0.03em" opacity="0.422"><tspan x="0" y="0">Add a priority</tspan></text><text transform="translate(77 333)" fill="#9ea5ad" font-size="13" font-family="Lato-Light, Lato" font-weight="300" letter-spacing="0.03em"><tspan x="0" y="0">Campaigns</tspan></text><text transform="translate(77 303)" fill="#9ea5ad" font-size="13" font-family="Lato-Light, Lato" font-weight="300" letter-spacing="0.03em"><tspan x="0" y="0">Product Roster</tspan></text><text transform="translate(77 272)" fill="#fff" font-size="13" font-family="Lato-Light, Lato" font-weight="300" letter-spacing="0.03em"><tspan x="0" y="0">Increase Market Share</tspan></text><text transform="translate(52 241)" fill="#777988" font-size="10" font-family="Lato-Regular, Lato" letter-spacing="0.1em"><tspan x="0" y="0">PRIORITY CARDS</tspan></text><path d="M55.5,48A7.5,7.5,0,1,0,63,55.5,7.509,7.509,0,0,0,55.5,48Zm2.885,8.077H56.077v2.308a.577.577,0,1,1-1.154,0V56.077H52.615a.577.577,0,1,1,0-1.154h2.308V52.615a.577.577,0,1,1,1.154,0v2.308h2.308a.577.577,0,1,1,0,1.154Z" transform="translate(4 304)" fill="#777988" opacity="0.42"/><g transform="translate(52 259.5)"><path d="M182.029,232.65l-1.7-1.7a.073.073,0,0,0-.111.014l-1.715,3.412a.071.071,0,0,0,.1.1l3.412-1.715A.073.073,0,0,0,182.029,232.65Z" transform="translate(-173.73 -224.252)" fill="#fff"/><path d="M55.5,48A7.5,7.5,0,1,0,63,55.5,7.5,7.5,0,0,0,55.5,48Zm1.464,8.989-5.755,2.9a.074.074,0,0,1-.1-.1l2.906-5.755a.084.084,0,0,1,.025-.025l5.751-2.9a.074.074,0,0,1,.1.1l-2.906,5.755a.048.048,0,0,1-.022.025Z" transform="translate(-48 -48)" fill="#fff"/></g><g transform="translate(52 290.5)"><path d="M182.029,232.65l-1.7-1.7a.073.073,0,0,0-.111.014l-1.715,3.412a.071.071,0,0,0,.1.1l3.412-1.715A.073.073,0,0,0,182.029,232.65Z" transform="translate(-173.73 -224.252)" fill="#777988"/><path d="M55.5,48A7.5,7.5,0,1,0,63,55.5,7.5,7.5,0,0,0,55.5,48Zm1.464,8.989-5.755,2.9a.074.074,0,0,1-.1-.1l2.906-5.755a.084.084,0,0,1,.025-.025l5.751-2.9a.074.074,0,0,1,.1.1l-2.906,5.755a.048.048,0,0,1-.022.025Z" transform="translate(-48 -48)" fill="#777988"/></g><g transform="translate(52 320.5)"><path d="M182.029,232.65l-1.7-1.7a.073.073,0,0,0-.111.014l-1.715,3.412a.071.071,0,0,0,.1.1l3.412-1.715A.073.073,0,0,0,182.029,232.65Z" transform="translate(-173.73 -224.252)" fill="#777988"/><path d="M55.5,48A7.5,7.5,0,1,0,63,55.5,7.5,7.5,0,0,0,55.5,48Zm1.464,8.989-5.755,2.9a.074.074,0,0,1-.1-.1l2.906-5.755a.084.084,0,0,1,.025-.025l5.751-2.9a.074.074,0,0,1,.1.1l-2.906,5.755a.048.048,0,0,1-.022.025Z" transform="translate(-48 -48)" fill="#777988"/></g></g><text transform="translate(78 171)" fill="#9ea5ad" font-size="13" font-family="Lato-Light, Lato" font-weight="300" letter-spacing="0.03em"><tspan x="0" y="0">Roadmap</tspan></text><text transform="translate(78 140)" fill="#9ea5ad" font-size="13" font-family="Lato-Light, Lato" font-weight="300" letter-spacing="0.03em"><tspan x="0" y="0">All priority cards</tspan></text><text transform="translate(51 112)" fill="#777988" font-size="10" font-family="Lato-Regular, Lato" letter-spacing="0.1em"><tspan x="0" y="0">VIEWS</tspan></text><path d="M78.583,64a1.333,1.333,0,0,0-.358.125L74,65.75,69,64l-4.708,1.583A.414.414,0,0,0,64,66V78.583a.394.394,0,0,0,.417.417,1.811,1.811,0,0,0,.355-.13L69,77.25,74,79l4.708-1.583A.414.414,0,0,0,79,77V64.417A.394.394,0,0,0,78.583,64ZM74,77.333l-5-1.75V65.667l5,1.75Z" transform="translate(-13 95)" fill="#777988"/><path d="M77.437,64H65.563A1.562,1.562,0,0,0,64,65.563V77.437A1.562,1.562,0,0,0,65.563,79H77.437A1.562,1.562,0,0,0,79,77.437V65.563A1.562,1.562,0,0,0,77.437,64ZM73.375,75.875h-6.25V74h6.25Zm2.5-3.437h-8.75V70.563h8.75Zm0-3.438h-8.75V67.125h8.75Z" transform="translate(-13 63.664)" fill="#777988"/></g></svg>