<svg xmlns="http://www.w3.org/2000/svg" width="876" height="121.5" viewBox="0 0 876 121.5"><g transform="translate(-325.5 -100)"><text transform="translate(326 130)" fill="#ced2d6" font-size="30" font-family="Lato-Regular, Lato" letter-spacing="-0.015em"><tspan x="0" y="0">Increase Market Share</tspan></text><text transform="translate(357 206)" fill="#ced2d6" font-size="20" font-family="Lato-Light, Lato" font-weight="300"><tspan x="0" y="0">Project Cards</tspan></text><line x2="876" transform="translate(325.5 220.5)" fill="none" stroke="#484a55" stroke-width="2"/><path d="M52.42,98.418H43.285L41.136,96H34.149A2.156,2.156,0,0,0,32,98.15v11.822a2.156,2.156,0,0,0,2.149,2.149H52.42a2.156,2.156,0,0,0,2.149-2.149v-9.4A2.156,2.156,0,0,0,52.42,98.418Zm.537,11.553a.545.545,0,0,1-.537.537H34.149a.545.545,0,0,1-.537-.537V100.03H52.42a.545.545,0,0,1,.537.537Z" transform="translate(294 94.777)" fill="#5b5d6a"/></g></svg>