<!-- Generator: Adobe Illustrator 24.3.0, SVG Export Plug-In  -->
<svg version="1.1" xmlns="http://www.w3.org/2000/svg" xmlns:xlink="http://www.w3.org/1999/xlink" x="0px" y="0px" width="416px"
	 height="416px" viewBox="0 0 416 416" style="overflow:visible;enable-background:new 0 0 416 416;" xml:space="preserve">
<style type="text/css">
	.st0{fill:#777988;}
</style>
<defs>
</defs>
<path class="st0" d="M232.5,232.5l-49-49c-0.9-0.9-2.5-0.7-3.2,0.4l-49.5,98.5c-1.1,1.8,1,3.9,2.8,2.8l98.5-49.5
	C233.2,235,233.4,233.4,232.5,232.5L232.5,232.5z"/>
<path class="st0" d="M208,0C93.1,0,0,93.1,0,208s93.1,208,208,208s208-93.1,208-208S322.9,0,208,0z M248.6,249.3L89,329.8
	c-1.8,1.1-3.9-1-2.8-2.8l80.6-159.6c0.2-0.3,0.4-0.5,0.7-0.7L327,86.2c1.8-1.1,3.9,1,2.8,2.8l-80.6,159.6
	C249.1,248.9,248.9,249.1,248.6,249.3L248.6,249.3z"/>
</svg>
