<svg xmlns="http://www.w3.org/2000/svg" width="970" height="256" viewBox="0 0 970 256"><g transform="translate(-340 -441)"><g transform="translate(340.5 441)"><g transform="translate(4.5)"><path d="M72.1,32a5.4,5.4,0,1,0,5.4,5.4A5.4,5.4,0,0,0,72.1,32Zm0,8.779A3.377,3.377,0,1,1,75.481,37.4,3.376,3.376,0,0,1,72.1,40.779Zm-2.63,2.845a6.681,6.681,0,0,1-2.144-1.448c-.059-.059-.118-.118-.173-.181L64,47.533h4.052l2.026,3.377L72.1,46.444l1.076-2.372a7.028,7.028,0,0,1-1.076.084A6.685,6.685,0,0,1,69.474,43.624ZM77.055,42c-.055.059-.114.122-.173.181a6.7,6.7,0,0,1-2.14,1.444L73.708,45.9l-.924,2.043L74.13,50.91l2.026-3.377h4.052Z" transform="translate(-64 -29.41)" fill="#5b5d6a"/><text transform="translate(25 20)" fill="#ced2d6" font-size="20" font-family="Lato-Light, Lato" font-weight="300" letter-spacing="0.02em"><tspan x="0" y="0">Milestones</tspan></text></g><g transform="translate(0 28.5)"><line x2="969.182" fill="none" stroke="#484a55" stroke-width="2"/></g></g><g transform="translate(340 495)"><g transform="translate(0 108)"><g fill="none" stroke="#3c9d69" stroke-width="1"><rect width="970" height="40" rx="6" stroke="none"/><rect x="0.5" y="0.5" width="969" height="39" rx="5.5" fill="none"/></g></g><g transform="translate(0 108)"><path d="M6.717,0H141.06V40H6.717C3.007,40,0,37.314,0,34V6C0,2.686,3.007,0,6.717,0Z" fill="#3c9d69"/><text transform="translate(21 25)" fill="#e5e7ea" font-size="12" font-family="Lato-Bold, Lato" font-weight="700" letter-spacing="0.1em"><tspan x="0" y="0">NORMAL</tspan></text><text transform="translate(159 11)" fill="#ced2d6" font-size="16" font-family="Lato-Light, Lato" font-weight="300" letter-spacing="0.03em"><tspan x="0" y="16">Give participants a high value gift to put in place of our goody bags</tspan></text></g><path d="M6,0H78a6,6,0,0,1,6,6V24a6,6,0,0,1-6,6H6a6,6,0,0,1-6-6V6A6,6,0,0,1,6,0Z" transform="translate(880.682 113)" fill="#3c9d69" opacity="0.998"/><text transform="translate(945 133)" fill="#fff" font-size="11" font-family="Lato-Black, Lato" font-weight="800" letter-spacing="0.1em"><tspan x="-45.991" y="0">PASSED</tspan></text><g fill="none" stroke="#00a3bf" stroke-width="1"><rect width="970" height="40" rx="6" stroke="none"/><rect x="0.5" y="0.5" width="969" height="39" rx="5.5" fill="none"/></g><path d="M6.7,0H140.706V40H6.7C3,40,0,37.314,0,34V6C0,2.686,3,0,6.7,0Z" fill="#00a3bf"/><text transform="translate(21 25)" fill="#e5e7ea" font-size="12" font-family="Lato-Bold, Lato" font-weight="700" letter-spacing="0.1em"><tspan x="0" y="0">DIFFICULT</tspan></text><text transform="translate(159 11)" fill="#ced2d6" font-size="16" font-family="Lato-Light, Lato" font-weight="300" letter-spacing="0.03em"><tspan x="0" y="16">Create content that gives just as much (if not more) value than our in-person conference did</tspan></text><g transform="translate(0 54)" fill="none" stroke="#00a3bf" stroke-width="1"><rect width="970" height="40" rx="6" stroke="none"/><rect x="0.5" y="0.5" width="969" height="39" rx="5.5" fill="none"/></g><path d="M6.7,0H140.706V40H6.7C3,40,0,37.314,0,34V6C0,2.686,3,0,6.7,0Z" transform="translate(0 54)" fill="#00a3bf"/><text transform="translate(21 79)" fill="#e5e7ea" font-size="12" font-family="Lato-Bold, Lato" font-weight="700" letter-spacing="0.1em"><tspan x="0" y="0">CHALLENGING</tspan></text><text transform="translate(159 65)" fill="#ced2d6" font-size="16" font-family="Lato-Light, Lato" font-weight="300" letter-spacing="0.03em"><tspan x="0" y="16">Capture attendee ongoing attention throughout, so that they’re cuddled up to watch our event</tspan></text><g transform="translate(0 162)" fill="none" stroke="#00a3bf" stroke-width="1"><rect width="970" height="40" rx="6" stroke="none"/><rect x="0.5" y="0.5" width="969" height="39" rx="5.5" fill="none"/></g><path d="M6.7,0H140.706V40H6.7C3,40,0,37.314,0,34V6C0,2.686,3,0,6.7,0Z" transform="translate(0 162)" fill="#00a3bf"/><text transform="translate(21 187)" fill="#e5e7ea" font-size="12" font-family="Lato-Bold, Lato" font-weight="700" letter-spacing="0.1em"><tspan x="0" y="0">DIFFICULT</tspan></text><text transform="translate(159 173)" fill="#ced2d6" font-size="16" font-family="Lato-Light, Lato" font-weight="300" letter-spacing="0.03em"><tspan x="0" y="16">Impress attendees so that they’re excited about next year’s virtual event</tspan></text></g></g></svg>