<!-- Generator: Adobe Illustrator 24.3.0, SVG Export Plug-In  -->
<svg version="1.1" xmlns="http://www.w3.org/2000/svg" xmlns:xlink="http://www.w3.org/1999/xlink" x="0px" y="0px" width="416px"
	 height="384px" viewBox="0 0 416 384" style="overflow:visible;enable-background:new 0 0 416 384;" xml:space="preserve">
<style type="text/css">
	.st0{fill:#3D4148;}
</style>
<defs>
</defs>
<path class="st0" d="M376,32h-40v24c0,4.4-3.6,8-8,8h-16c-4.4,0-8-3.6-8-8V32H112v24c0,4.4-3.6,8-8,8H88c-4.4,0-8-3.6-8-8V32H40
	C18,32,0,50,0,72v272c0,22,18,40,40,40h336c22,0,40-18,40-40V72C416,50,398,32,376,32z M384,332c0,11-9,20-20,20H52
	c-11,0-20-9-20-20V152c0-4.4,3.6-8,8-8h336c4.4,0,8,3.6,8,8V332z M112,8c0-4.4-3.6-8-8-8H88c-4.4,0-8,3.6-8,8v24h32V8z M336,8
	c0-4.4-3.6-8-8-8h-16c-4.4,0-8,3.6-8,8v24h32V8z"/>
</svg>
