<!-- Generator: Adobe Illustrator 24.3.0, SVG Export Plug-In  -->
<svg version="1.1" xmlns="http://www.w3.org/2000/svg" xmlns:xlink="http://www.w3.org/1999/xlink" x="0px" y="0px"
	 width="234.668px" height="448px" viewBox="0 0 234.668 448" style="overflow:visible;enable-background:new 0 0 234.668 448;"
	 xml:space="preserve">
<style type="text/css">
	.st0{fill:#484A55;}
</style>
<defs>
</defs>
<path class="st0" d="M202.668,96v234.666c0,46.938-38.396,85.334-85.334,85.334c-46.937,0-85.333-38.396-85.333-85.334V85.334
	C32.001,55.469,55.469,32,85.334,32c29.864,0,53.333,23.469,53.333,53.334v245.333c0,11.729-9.605,21.333-21.334,21.333
	S96,342.396,96,330.667V128H64v202.667C64.001,360.531,87.469,384,117.334,384s53.334-23.469,53.334-53.333V85.334
	C170.668,38.401,132.272,0,85.334,0S0,38.401,0,85.334v245.332C0.001,395.729,52.272,448,117.334,448
	s117.334-52.271,117.334-117.334V96H202.668L202.668,96z"/>
</svg>
