<svg xmlns="http://www.w3.org/2000/svg" width="970" height="202" viewBox="0 0 970 202"><g transform="translate(0 108)"><g fill="none" stroke="#3c9d69" stroke-width="1"><rect width="970" height="40" rx="6" stroke="none"/><rect x="0.5" y="0.5" width="969" height="39" rx="5.5" fill="none"/></g></g><g transform="translate(0 108)"><path d="M6.717,0H141.06V40H6.717C3.007,40,0,37.314,0,34V6C0,2.686,3.007,0,6.717,0Z" fill="#3c9d69"/><text transform="translate(21 25)" fill="#e5e7ea" font-size="12" font-family="Lato-Bold, Lato" font-weight="700" letter-spacing="0.1em"><tspan x="0" y="0">NORMAL</tspan></text><text transform="translate(159 11)" fill="#ced2d6" font-size="16" font-family="Lato-Light, Lato" font-weight="300" letter-spacing="0.03em"><tspan x="0" y="16">Give participants a high value gift to put in place of our goody bags</tspan></text></g><path d="M6,0H78a6,6,0,0,1,6,6V24a6,6,0,0,1-6,6H6a6,6,0,0,1-6-6V6A6,6,0,0,1,6,0Z" transform="translate(880.682 113)" fill="#3c9d69" opacity="0.998"/><text transform="translate(945 133)" fill="#fff" font-size="11" font-family="Lato-Black, Lato" font-weight="800" letter-spacing="0.1em"><tspan x="-45.991" y="0">PASSED</tspan></text><g fill="none" stroke="#00a3bf" stroke-width="1"><rect width="970" height="40" rx="6" stroke="none"/><rect x="0.5" y="0.5" width="969" height="39" rx="5.5" fill="none"/></g><path d="M6.7,0H140.706V40H6.7C3,40,0,37.314,0,34V6C0,2.686,3,0,6.7,0Z" fill="#00a3bf"/><text transform="translate(21 25)" fill="#e5e7ea" font-size="12" font-family="Lato-Bold, Lato" font-weight="700" letter-spacing="0.1em"><tspan x="0" y="0">DIFFICULT</tspan></text><text transform="translate(159 11)" fill="#ced2d6" font-size="16" font-family="Lato-Light, Lato" font-weight="300" letter-spacing="0.03em"><tspan x="0" y="16">Create content that gives just as much (if not more) value than our in-person conference did</tspan></text><g transform="translate(0 54)" fill="none" stroke="#00a3bf" stroke-width="1"><rect width="970" height="40" rx="6" stroke="none"/><rect x="0.5" y="0.5" width="969" height="39" rx="5.5" fill="none"/></g><path d="M6.7,0H140.706V40H6.7C3,40,0,37.314,0,34V6C0,2.686,3,0,6.7,0Z" transform="translate(0 54)" fill="#00a3bf"/><text transform="translate(21 79)" fill="#e5e7ea" font-size="12" font-family="Lato-Bold, Lato" font-weight="700" letter-spacing="0.1em"><tspan x="0" y="0">CHALLENGING</tspan></text><text transform="translate(159 65)" fill="#ced2d6" font-size="16" font-family="Lato-Light, Lato" font-weight="300" letter-spacing="0.03em"><tspan x="0" y="16">Capture attendee ongoing attention throughout, so that they’re cuddled up to watch our event</tspan></text><g transform="translate(0 162)" fill="none" stroke="#00a3bf" stroke-width="1"><rect width="970" height="40" rx="6" stroke="none"/><rect x="0.5" y="0.5" width="969" height="39" rx="5.5" fill="none"/></g><path d="M6.7,0H140.706V40H6.7C3,40,0,37.314,0,34V6C0,2.686,3,0,6.7,0Z" transform="translate(0 162)" fill="#00a3bf"/><text transform="translate(21 187)" fill="#e5e7ea" font-size="12" font-family="Lato-Bold, Lato" font-weight="700" letter-spacing="0.1em"><tspan x="0" y="0">DIFFICULT</tspan></text><text transform="translate(159 173)" fill="#ced2d6" font-size="16" font-family="Lato-Light, Lato" font-weight="300" letter-spacing="0.03em"><tspan x="0" y="16">Impress attendees so that they’re excited about next year’s virtual event</tspan></text></svg>