<!-- Generator: Adobe Illustrator 24.3.0, SVG Export Plug-In  -->
<svg version="1.1" xmlns="http://www.w3.org/2000/svg" xmlns:xlink="http://www.w3.org/1999/xlink" x="0px" y="0px"
	 width="415.986px" height="415.967px" viewBox="0 0 415.986 415.967"
	 style="overflow:visible;enable-background:new 0 0 415.986 415.967;" xml:space="preserve">
<style type="text/css">
	.st0{fill:#5B5D6A;}
</style>
<defs>
</defs>
<path class="st0" d="M404.083,0.985l-399.8,216.3c-6,3.3-5.6,12.1,0.6,14.9l68.2,25.7c4,1.5,7.2,4.5,9,8.4l53,109.1
	c1,4.8,9.9,6.1,10,1.2l-8.1-90.2c0.5-6.7,3-13,7.3-18.2l207.3-203.1c1.2-1.2,2.9-1.6,4.5-1.3c3.4,0.8,4.8,4.9,2.6,7.6l-178.7,218.6
	c-4,6-6,11-7,18l-10.7,77.9c0.9,6.8,6.2,9.4,10.5,3.3l38.5-45.2c2.6-3.7,7.7-4.5,11.3-1.9l99.2,72.3c4.7,3.5,11.4,0.9,12.6-4.9
	l81.4-399.5C417.283,3.185,410.183-2.315,404.083,0.985L404.083,0.985z"/>
</svg>
