<!-- Generator: Adobe Illustrator 24.3.0, SVG Export Plug-In  -->
<svg version="1.1" xmlns="http://www.w3.org/2000/svg" xmlns:xlink="http://www.w3.org/1999/xlink" x="0px" y="0px" width="448px"
	 height="320px" viewBox="0 0 448 320" style="overflow:visible;enable-background:new 0 0 448 320;" xml:space="preserve">
<style type="text/css">
	.st0{fill:#3D4148;}
</style>
<defs>
</defs>
<path class="st0" d="M405.3,48H224L181.3,0H42.7C19.2,0,0,19.2,0,42.7v234.7C0,300.8,19.2,320,42.7,320h362.7
	c23.5,0,42.7-19.2,42.7-42.7V90.7C448,67.2,428.8,48,405.3,48z M416,277.3c0,5.8-4.9,10.7-10.7,10.7H42.7c-5.8,0-10.7-4.9-10.7-10.7
	V80h373.3c5.8,0,10.7,4.9,10.7,10.7V277.3z"/>
</svg>
