<!-- Generator: Adobe Illustrator 24.3.0, SVG Export Plug-In  -->
<svg version="1.1" xmlns="http://www.w3.org/2000/svg" xmlns:xlink="http://www.w3.org/1999/xlink" x="0px" y="0px"
	 width="307.838px" height="188.286px" viewBox="0 0 307.838 188.286"
	 style="overflow:visible;enable-background:new 0 0 307.838 188.286;" xml:space="preserve">
<style type="text/css">
	.st0{fill:#FFAB00;}
</style>
<defs>
</defs>
<g>
	<path class="st0" d="M96.559,156.526c0-3.15,0-6.3,0-9.45c0.076-0.445,0.203-0.889,0.203-1.334
		c0.419-25.289,0.927-50.578,1.194-75.879c0.203-19.002,0.114-38.003,0.102-57.005c0-1.6,0.445-2.947,1.664-3.899
		c1.181-0.927,2.439-1.88,3.823-2.401c2.604-0.991,5.297-1.753,7.989-2.464c21.885-5.868,43.744-5.284,65.451,0.826
		c18.989,5.335,35.895,14.734,51.124,27.194c7.176,5.868,13.705,12.409,19.776,19.408c4.941,5.678,10.53,10.53,16.931,14.505
		c3.468,2.147,6.579,4.789,8.663,8.408c1.715,2.972,2.451,6.071,1.41,9.475c-2.705-0.8-3.302-1.435-6.491-6.948
		c-0.343,0.737-0.787,1.27-0.8,1.816c-0.013,0.94,0.089,1.943,0.394,2.832c2.147,6.186,5.868,11.355,10.771,15.636
		c6.44,5.627,13.946,9.196,22.253,11.101c2.248,0.521,4.547,0.851,6.821,1.27c-16.766,3.658-31.995,0.368-45.802-10.06
		c0.229,1.283,0.495,2.528,1.13,3.531c0.889,1.41,2.045,2.642,3.086,3.963c2.871,3.607,2.82,6.008-0.711,8.878
		c-3.734,3.036-7.761,5.716-11.622,8.599c-2.921,2.197-5.919,4.319-8.624,6.757c-3.683,3.328-6.325,7.392-7.354,12.359
		c-0.394,1.867-1.639,3.125-3.277,3.976c-3.074,1.6-6.135,1.232-9.031-0.381c-3.849-2.134-7.253-4.877-10.085-8.256
		c-1.639-1.956-2.451-4.23-2.172-6.91c1.181-10.974-8.078-19.56-18.913-17.579c-3.302,0.61-6.173,2.083-8.574,4.661
		c2.858,1.257,4.23,3.518,4.852,6.249c0.826,3.645,0.432,7.253-1.359,10.504c-1.664,3.01-3.772,5.767-5.589,8.688
		c-1.511,2.451-3.315,4.839-4.204,7.519c-1.384,4.141-4.052,6.757-8.015,7.837c-5.906,1.613-11.901,2.959-17.922,4.141
		c-2.896,0.572-5.919,0.521-9.107,0.775c0.165-0.915,0.229-1.461,0.368-1.981c1.537-5.474,3.086-10.936,4.649-16.398
		c0.165-0.584,0.368-1.169,0.66-1.689c1.067-1.88,1.816-2.07,3.823-1.308c3.925,1.499,7.799,1.651,11.203-1.232
		c2.401-2.032,3.036-4.75,2.223-7.748c-0.775-2.82-2.883-4.141-5.652-4.28c-3.341-0.165-6.706-0.178-10.047-0.165
		c-4.827,0.025-9.653,0.089-14.467,0.216c-1.918,0.051-3.264,1.003-4.179,2.794c-2.744,5.373-5.665,10.669-8.396,16.055
		c-1.143,2.248-2.121,4.611-2.921,6.999c-0.838,2.477-0.749,4.992,0.559,7.38c2.832,5.182,5.043,10.631,6.719,16.296
		c0.8,2.705,1.448,5.449,2.185,8.231c-0.483,0.089-0.673,0.165-0.876,0.165c-7.672,0.038-15.344,0.102-23.015,0.076
		c-1.08,0-2.248-0.267-3.226-0.724c-1.867-0.876-2.35-2.731-1.473-4.611c0.381-0.813,0.737-1.677,0.927-2.566
		c0.762-3.391-0.216-6.529-1.537-9.602C100.04,166.103,97.22,161.721,96.559,156.526z"/>
</g>
<rect x="62.909" y="42.388" class="st0" width="21.842" height="145.898"/>
<rect x="31.455" y="84.872" class="st0" width="21.842" height="103.414"/>
<rect y="127.803" class="st0" width="21.842" height="60.484"/>
</svg>
